<?xml version="1.0" encoding="UTF-8"?>
<svg width="500px" height="500px" viewBox="0 0 500 500" xmlns="http://www.w3.org/2000/svg" xmlns:xlink="http://www.w3.org/1999/xlink" version="1.1">
 <!-- Generated by Pixelmator Pro 1.1.2 -->
 <defs>
  <path id="path" d="M410 250 C410 161.635 338.365 90 250 90 161.634 90 90 161.635 90 250 90 338.366 161.634 410 250 410 338.365 410 410 338.366 410 250 Z"/>
 </defs>
 <defs>
  <path id="stroke-path" d="M355.564 360.26 C355.564 349.214 346.609 340.26 335.564 340.26 324.518 340.26 315.564 349.214 315.564 360.26 315.564 371.306 324.518 380.26 335.564 380.26 346.609 380.26 355.564 371.306 355.564 360.26 Z"/>
  <path id="stroke-path-1" d="M402.065 296.556 C402.065 285.51 393.11 276.556 382.065 276.556 371.019 276.556 362.065 285.51 362.065 296.556 362.065 307.601 371.019 316.556 382.065 316.556 393.11 316.556 402.065 307.601 402.065 296.556 Z"/>
  <path id="stroke-path-2" d="M406.07 217.735 C406.07 206.689 397.116 197.735 386.07 197.735 375.024 197.735 366.07 206.689 366.07 217.735 366.07 228.781 375.024 237.735 386.07 237.735 397.116 237.735 406.07 228.781 406.07 217.735 Z"/>
  <path id="stroke-path-3" d="M366.971 149.249 C366.971 138.203 358.017 129.249 346.971 129.249 335.925 129.249 326.971 138.203 326.971 149.249 326.971 160.294 335.925 169.249 346.971 169.249 358.017 169.249 366.971 160.294 366.971 149.249 Z"/>
  <path id="stroke-path-4" d="M297.062 112.653 C297.062 101.607 288.108 92.653 277.062 92.653 266.016 92.653 257.062 101.607 257.062 112.653 257.062 123.698 266.016 132.653 277.062 132.653 288.108 132.653 297.062 123.698 297.062 112.653 Z"/>
  <path id="stroke-path-5" d="M218.545 120.14 C218.545 109.094 209.59 100.14 198.545 100.14 187.499 100.14 178.545 109.094 178.545 120.14 178.545 131.185 187.499 140.14 198.545 140.14 209.59 140.14 218.545 131.185 218.545 120.14 Z"/>
  <path id="stroke-path-6" d="M156.238 168.474 C156.238 157.429 147.283 148.474 136.238 148.474 125.192 148.474 116.238 157.429 116.238 168.474 116.238 179.52 125.192 188.474 136.238 188.474 147.283 188.474 156.238 179.52 156.238 168.474 Z"/>
  <path id="stroke-path-7" d="M130.28 243.008 C130.28 231.962 121.325 223.008 110.28 223.008 99.234 223.008 90.28 231.962 90.28 243.008 90.28 254.053 99.234 263.008 110.28 263.008 121.325 263.008 130.28 254.053 130.28 243.008 Z"/>
  <path id="stroke-path-8" d="M149 319.542 C149 308.496 140.045 299.542 129 299.542 117.954 299.542 109 308.496 109 319.542 109 330.587 117.954 339.542 129 339.542 140.045 339.542 149 330.587 149 319.542 Z"/>
  <path id="stroke-path-9" d="M205.908 373.915 C205.908 362.869 196.954 353.915 185.908 353.915 174.863 353.915 165.908 362.869 165.908 373.915 165.908 384.961 174.863 393.915 185.908 393.915 196.954 393.915 205.908 384.961 205.908 373.915 Z"/>
  <path id="stroke-path-10" d="M282.344 389.453 C282.344 378.407 273.389 369.453 262.344 369.453 251.298 369.453 242.344 378.407 242.344 389.453 242.344 400.499 251.298 409.453 262.344 409.453 273.389 409.453 282.344 400.499 282.344 389.453 Z"/>
 </defs>
 <g id="ellipse" fill="#ffffff" fill-opacity="1" stroke="none" stroke-width="0">
  <use xlink:href="#stroke-path"/>
  <use xlink:href="#stroke-path-1"/>
  <use xlink:href="#stroke-path-2"/>
  <use xlink:href="#stroke-path-3"/>
  <use xlink:href="#stroke-path-4"/>
  <use xlink:href="#stroke-path-5"/>
  <use xlink:href="#stroke-path-6"/>
  <use xlink:href="#stroke-path-7"/>
  <use xlink:href="#stroke-path-8"/>
  <use xlink:href="#stroke-path-9"/>
  <use xlink:href="#stroke-path-10"/>
 </g>
</svg>
