<?xml version="1.0" encoding="UTF-8"?>
<svg width="500px" height="500px" viewBox="0 0 500 500" xmlns="http://www.w3.org/2000/svg" xmlns:xlink="http://www.w3.org/1999/xlink" version="1.1">
 <!-- Generated by Pixelmator Pro 1.1.2 -->
 <defs>
  <path id="path" d="M92 338 L407 338 407 163 92 163 Z"/>
 </defs>
 <defs>
  <path id="stroke-path" d="M337 180.5 C337 170.835 329.165 163 319.5 163 309.835 163 302 170.835 302 180.5 302 190.165 309.835 198 319.5 198 329.165 198 337 190.165 337 180.5 Z"/>
  <path id="stroke-path-1" d="M267 180.5 C267 170.835 259.165 163 249.5 163 239.835 163 232 170.835 232 180.5 232 190.165 239.835 198 249.5 198 259.165 198 267 190.165 267 180.5 Z"/>
  <path id="stroke-path-2" d="M197 180.5 C197 170.835 189.165 163 179.5 163 169.835 163 162 170.835 162 180.5 162 190.165 169.835 198 179.5 198 189.165 198 197 190.165 197 180.5 Z"/>
  <path id="stroke-path-3" d="M127 180.5 C127 170.835 119.165 163 109.5 163 99.835 163 92 170.835 92 180.5 92 190.165 99.835 198 109.5 198 119.165 198 127 190.165 127 180.5 Z"/>
  <path id="stroke-path-4" d="M127 250.5 C127 240.835 119.165 233 109.5 233 99.835 233 92 240.835 92 250.5 92 260.165 99.835 268 109.5 268 119.165 268 127 260.165 127 250.5 Z"/>
  <path id="stroke-path-5" d="M127 320.5 C127 310.835 119.165 303 109.5 303 99.835 303 92 310.835 92 320.5 92 330.165 99.835 338 109.5 338 119.165 338 127 330.165 127 320.5 Z"/>
  <path id="stroke-path-6" d="M197 320.5 C197 310.835 189.165 303 179.5 303 169.835 303 162 310.835 162 320.5 162 330.165 169.835 338 179.5 338 189.165 338 197 330.165 197 320.5 Z"/>
  <path id="stroke-path-7" d="M267 320.5 C267 310.835 259.165 303 249.5 303 239.835 303 232 310.835 232 320.5 232 330.165 239.835 338 249.5 338 259.165 338 267 330.165 267 320.5 Z"/>
  <path id="stroke-path-8" d="M337 320.5 C337 310.835 329.165 303 319.5 303 309.835 303 302 310.835 302 320.5 302 330.165 309.835 338 319.5 338 329.165 338 337 330.165 337 320.5 Z"/>
  <path id="stroke-path-9" d="M407 320.5 C407 310.835 399.165 303 389.5 303 379.835 303 372 310.835 372 320.5 372 330.165 379.835 338 389.5 338 399.165 338 407 330.165 407 320.5 Z"/>
  <path id="stroke-path-10" d="M407 250.5 C407 240.835 399.165 233 389.5 233 379.835 233 372 240.835 372 250.5 372 260.165 379.835 268 389.5 268 399.165 268 407 260.165 407 250.5 Z"/>
  <path id="stroke-path-11" d="M407 180.5 C407 170.835 399.165 163 389.5 163 379.835 163 372 170.835 372 180.5 372 190.165 379.835 198 389.5 198 399.165 198 407 190.165 407 180.5 Z"/>
 </defs>
 <g id="rectangle" fill="#ffffff" fill-opacity="1" stroke="none" stroke-width="0">
  <use xlink:href="#stroke-path"/>
  <use xlink:href="#stroke-path-1"/>
  <use xlink:href="#stroke-path-2"/>
  <use xlink:href="#stroke-path-3"/>
  <use xlink:href="#stroke-path-4"/>
  <use xlink:href="#stroke-path-5"/>
  <use xlink:href="#stroke-path-6"/>
  <use xlink:href="#stroke-path-7"/>
  <use xlink:href="#stroke-path-8"/>
  <use xlink:href="#stroke-path-9"/>
  <use xlink:href="#stroke-path-10"/>
  <use xlink:href="#stroke-path-11"/>
 </g>
</svg>
